<svg xmlns="http://www.w3.org/2000/svg" viewBox="0 0 40 40" width="40" height="40">
  <defs>
    <linearGradient id="g" x1="0%" y1="0%" x2="100%" y2="100%">
      <stop offset="0%" stop-color="#6C8CFF"/>
      <stop offset="100%" stop-color="#3B5BDB"/>
    </linearGradient>
  </defs>
  <circle cx="20" cy="20" r="6" fill="url(#g)"/>
  <line x1="20" y1="12" x2="20" y2="4" stroke="url(#g)" stroke-width="2.5" stroke-linecap="round"/>
  <circle cx="20" cy="3" r="2" fill="url(#g)"/>
  <line x1="20" y1="28" x2="20" y2="36" stroke="url(#g)" stroke-width="2.5" stroke-linecap="round"/>
  <circle cx="20" cy="37" r="2" fill="url(#g)"/>
  <line x1="12" y1="20" x2="4" y2="20" stroke="url(#g)" stroke-width="2.5" stroke-linecap="round"/>
  <circle cx="3" cy="20" r="2" fill="url(#g)"/>
  <line x1="28" y1="20" x2="36" y2="20" stroke="url(#g)" stroke-width="2.5" stroke-linecap="round"/>
  <circle cx="37" cy="20" r="2" fill="url(#g)"/>
  <line x1="25" y1="15" x2="31" y2="9" stroke="url(#g)" stroke-width="2" stroke-linecap="round" opacity="0.6"/>
  <circle cx="32.5" cy="7.5" r="1.5" fill="url(#g)" opacity="0.6"/>
  <line x1="15" y1="25" x2="9" y2="31" stroke="url(#g)" stroke-width="2" stroke-linecap="round" opacity="0.6"/>
  <circle cx="7.5" cy="32.5" r="1.5" fill="url(#g)" opacity="0.6"/>
  <line x1="15" y1="15" x2="9" y2="9" stroke="url(#g)" stroke-width="2" stroke-linecap="round" opacity="0.6"/>
  <circle cx="7.5" cy="7.5" r="1.5" fill="url(#g)" opacity="0.6"/>
  <line x1="25" y1="25" x2="31" y2="31" stroke="url(#g)" stroke-width="2" stroke-linecap="round" opacity="0.6"/>
  <circle cx="32.5" cy="32.5" r="1.5" fill="url(#g)" opacity="0.6"/>
</svg>
